<svg xmlns="http://www.w3.org/2000/svg" viewBox="0 0 121 32"><g fill="none"><path fill="#004cb8" d="m115.594598 25.2307874c0 .6227491-.299956 1.1182695-.906535 1.4865619-.603245.3649442-1.399796.5490905-2.382987.5490905-1.183161 0-2.196347-.2812414-3.039557-.8470725-.843211-.5658308-1.433125-1.285675-1.773076-2.1628804-.166642-.4218622-.463266-.5356981-.886538-.3381594l-3.2062 1.4396883c-.449935.2008866-.576583.5089131-.379945.9341232.646573 1.5836571 1.76641 2.889421 3.356179 3.9206395s3.606142 1.5468279 6.055786 1.5468279c2.362989 0 4.359366-.6060085 5.992462-1.821373 1.629762-1.2153648 2.44631-2.8693324 2.44631-4.9585543 0-3.4485556-2.419648-5.5846512-7.258944-6.4015906-1.773075-.3113744-3.042891-.6595781-3.819444-1.0379148-.773221-.3816848-1.159832-.8705092-1.159832-1.4631251 0-.508913.303289-.9140346.906535-1.2086685.606579-.297982 1.416461-.4452989 2.426314-.4452989 1.633096 0 3.052889.6361413 4.262713 1.908424.336618.3381593.676569.3816848 1.013186.1272282l2.279669-2.119355c.393276-.3113744.436603-.6528819.126648-1.0178261-1.773076-2.176273-4.37603-3.2644094-7.808864-3.2644094-2.446311 0-4.402694.5591347-5.862481 1.6740561-1.463121 1.1149213-2.196347 2.6215719-2.196347 4.5132553 0 1.583657.583248 2.9061614 1.753078 3.9641648 1.166497 1.0613516 2.7496 1.7744995 4.745976 2.1427919 1.969714.3649442 3.34618.7600215 4.136066 1.1852317.786552.4252103 1.179828.9876931 1.179828 1.6941447z"></path><path fill="#004cb8" d="m82.1153119 23.716792c0 2.5412171.6898997 4.5433883 2.0663662 5.996469 1.3797994 1.4564288 3.2495273 2.1829692 5.6125171 2.1829692.8998692 0 1.7230827-.1205319 2.4696408-.358248.7465581-.241064 1.323141-.5022167 1.7297483-.7868064.4066076-.2812414.8932035-.6763187 1.4564551-1.1852318l.5065929 1.2287573c.1666424.3950772.4932616.592616.9698589.592616h3.4594968c.449935 0 .676568-.2243237.676568-.6763189v-19.2884745c0-.4519951-.226633-.6796668-.676568-.6796668h-4.2627133c-.4499345 0-.6732353.2276717-.6732353.6796668v13.1413406c-1.0698445 1.5535241-2.4763067 2.3302861-4.2193865 2.3302861-1.0965072 0-1.9497164-.3515517-2.552962-1.0580036-.6065785-.7064517-.9065348-1.6405749-.9065348-2.7990217v-11.6146014c0-.4519951-.2399652-.6796668-.7198953-.6796668h-4.2193864c-.4765973 0-.7165625.2276717-.7165625.6796668z"></path><path fill="#febb02" d="m0 4.03185943c0 1.100993.39536721 2.04853751 1.18994015 2.84263351.79457294.79025979 1.74268653 1.18922589 2.8443408 1.18922589 1.10165426 0 2.04976788-.3989661 2.84434082-1.18922589.79073441-.794096 1.18994014-1.74164051 1.18994014-2.84263351 0-1.10099301-.39920573-2.04853753-1.18994014-2.84263353-.79457294-.794096-1.74268656-1.1892259-2.84434082-1.1892259-1.10165427 0-2.04976786.3951299-2.8443408 1.1892259s-1.18994015 1.74164052-1.18994015 2.84263353z" transform="translate(72.808 .069)"></path><path fill="#004cb8" d="m1.22053066 30.4694485c0 .4519952.23663225.6763188.71656245.6763188h4.21938636c.4799302 0 .71656246-.2243236.71656246-.6763188v-19.2884745c0-.4519952-.23663226-.6796668-.71656246-.6796668h-4.21938636c-.4799302 0-.71656245.2276716-.71656245.6796668z" transform="translate(72.808 .069)"></path><g fill="#004cb8"><path d="m71.7846736 17.4330341c0-2.3470267-.639907-4.1617035-1.9197208-5.4473786-1.279814-1.2856751-3.1028821-1.9285126-5.4658719-1.9285126-2.1363559 0-4.1060694.7901544-5.9058076 2.3738115l-.54992-1.1885798c-.1399797-.4218621-.4499348-.6361413-.926532-.6361413h-3.4628297c-.4765973 0-.7165625.2276716-.7165625.6796667v19.2884746c0 .4519952.2399652.6763187.7165625.6763187h4.2193864c.4799301 0 .7198953-.2243235.7198953-.6763187v-13.184866c.4199389-.5658309 1.0265174-1.0881364 1.8130695-1.5669165.7865524-.4821281 1.5764374-.7231922 2.3629898-.7231922 2.3363268 0 3.502824 1.2722826 3.502824 3.8168479v11.6581268c0 .4519952.2266337.6763187.6765682.6763187h4.2593804c.4499345 0 .6765684-.2243235.6765684-.6763187z"></path><path d="m50.3232223 22.4351138c.4499347 0 .6732355-.2276717.6732355-.6796668v-1.3559855c0-2.9664274-.8998692-5.4339861-2.6996074-7.3959799-1.7997383-1.9653419-4.2893762-2.9463387-7.4689137-2.9463387-2.8695828 0-5.3592207 1.0178261-7.468914 3.0501302-2.1096931 2.0356522-3.1662061 4.6371354-3.1662061 7.8011015 0 3.163966 1.0631788 5.7654492 3.1862034 7.8011015 2.1263574 2.032304 4.7059821 3.0501303 7.74554 3.0501303 4.0227484 0 7.0589735-1.7376704 9.1120082-5.2130107.2266337-.3682924.1266483-.6227491-.2932905-.7633696l-3.6294723-1.5267392c-.3666133-.1674058-.6332413-.1272284-.8032166.1272283-1.0131858 1.5836569-2.4729735 2.3738114-4.3860288 2.3738114-1.4064621 0-2.5696262-.3950772-3.4828267-1.1852317-.9132005-.7935027-1.5264447-1.8381136-1.8363996-3.1371811zm-9.4952856-7.5868223c1.2098241 0 2.2630042.3314631 3.166206.9943893.8998693.6629262 1.4464565 1.4765175 1.6430945 2.4374257h-9.7052552c.3666133-1.0178261.9631932-1.8448098 1.7930725-2.4809512.8298793-.6361413 1.8663953-.9508638 3.1028822-.9508638z"></path><path d="m28.3439154 26.8958695c0 .4031337-.1747965.779392-.4907747 1.041429-2.9513707 2.3583324-6.7968924 3.7827383-10.9852841 3.7827383-9.31127197 0-16.8678566-7.0548407-16.8678566-15.7423732 0-8.69425139 7.55658463-15.9776636 16.8678566-15.9776636 4.1816688 0 8.0137446 1.42440595 10.9583924 3.78273842.1411816.11422124.22858.27547475.2420258.45016604.0201688.18141019-.0336146.35610148-.1479047.49719831-.7529693.90705094-2.3194143 2.79506073-3.0925523 3.72226836-.1142901.14109682-.2823635.22844247-.4638829.24188025-.1815195.01343781-.356316-.04703227-.4907747-.16125351-1.8555315-1.57222164-4.3094046-2.52630486-7.0053036-2.52630486-5.7615596 0-10.43400295 4.59585379-10.43400295 9.97097059s4.67244335 9.7423993 10.43400295 9.7423993c2.2387391 0 4.3094046-.6584519 6.0103085-1.7805075v-4.3538447s-3.4421454 0-4.934638 0c-.1747965 0-.3495929-.0671889-.4773288-.194848-.1210129-.127659-.1949653-.2956314-.1949653-.4770416 0-1.0683044 0-3.1511622 0-4.2194666 0-.1814102.0739524-.3493826.1949653-.4770417.1277359-.1209401.3025323-.1948479.4773288-.1948479h9.7280942c.3697618 0 .6722941.3023503.6722941.6718896z"></path></g></g></svg>